<svg width="101" height="101" viewBox="0 0 101 101" fill="none" xmlns="http://www.w3.org/2000/svg">
<path d="M8.41667 50.5C8.41878 41.2736 11.4529 32.3036 17.0521 24.9705C22.6513 17.6374 30.5052 12.3476 39.4052 9.91514C48.3051 7.48271 57.7578 8.04248 66.3084 11.5083C74.8591 14.9742 82.0338 21.154 86.7284 29.0967C91.4229 37.0394 93.3772 46.3048 92.2903 55.4669C91.2035 64.629 87.1358 73.1801 80.7133 79.804C74.2908 86.428 65.8694 90.7578 56.7452 92.127C47.621 93.4962 38.2997 91.8289 30.2158 87.3818L13.8538 92.3645C13.124 92.5868 12.3475 92.6065 11.6074 92.4216C10.8672 92.2367 10.1913 91.854 9.65179 91.3145C9.11233 90.7751 8.72967 90.0991 8.54473 89.359C8.35978 88.6188 8.37952 87.8423 8.60184 87.1125L13.5845 70.7252C10.1906 64.5245 8.41331 57.5688 8.41667 50.5ZM33.6667 46.2917C33.6667 47.4078 34.11 48.4782 34.8993 49.2674C35.6885 50.0566 36.7589 50.5 37.875 50.5H63.125C64.2411 50.5 65.3115 50.0566 66.1007 49.2674C66.89 48.4782 67.3333 47.4078 67.3333 46.2917C67.3333 45.1755 66.89 44.1051 66.1007 43.3159C65.3115 42.5267 64.2411 42.0833 63.125 42.0833H37.875C36.7589 42.0833 35.6885 42.5267 34.8993 43.3159C34.11 44.1051 33.6667 45.1755 33.6667 46.2917ZM37.875 58.9167C36.7589 58.9167 35.6885 59.36 34.8993 60.1493C34.11 60.9385 33.6667 62.0089 33.6667 63.125C33.6667 64.2411 34.11 65.3115 34.8993 66.1007C35.6885 66.8899 36.7589 67.3333 37.875 67.3333H54.7083C55.8245 67.3333 56.8949 66.8899 57.6841 66.1007C58.4733 65.3115 58.9167 64.2411 58.9167 63.125C58.9167 62.0089 58.4733 60.9385 57.6841 60.1493C56.8949 59.36 55.8245 58.9167 54.7083 58.9167H37.875Z" fill="#4564FF"/>
</svg>
